<svg width="120" height="19" viewBox="0 0 120 19" fill="none" xmlns="http://www.w3.org/2000/svg">
<g clip-path="url(#clip0_234_1169)">
<path d="M39.2124 13.6847C38.0736 14.3196 36.5889 14.6372 34.758 14.6372C32.7174 14.6372 31.1439 14.2404 30.0371 13.4465C28.9304 12.6526 28.377 11.5065 28.377 10.0081H31.096C31.096 10.8616 31.4513 11.4869 32.1619 11.8837C32.8724 12.2805 33.7377 12.4741 34.758 12.4642C35.6688 12.4741 36.4476 12.3353 37.0945 12.0472C37.7411 11.7597 38.0692 11.2982 38.0783 10.663C38.0692 10.3655 37.9984 10.1421 37.8665 9.99334C37.7344 9.84435 37.4884 9.738 37.1287 9.67332C36.7687 9.60887 36.2245 9.57641 35.4959 9.57641H32.968V7.58188H35.4959C36.3157 7.58188 36.9326 7.49273 37.3473 7.31394C37.7617 7.13539 37.969 6.84783 37.969 6.45076C37.969 6.01421 37.6569 5.68933 37.033 5.4759C36.409 5.26247 35.6506 5.15079 34.758 5.14085C33.7377 5.13116 32.8724 5.24769 32.1619 5.49068C31.4513 5.73391 31.096 6.11838 31.096 6.64433H28.377C28.377 5.21523 29.0397 4.24546 30.365 3.73429C31.6905 3.22336 33.1546 2.96777 34.758 2.96777C35.7326 2.96777 36.6413 3.03464 37.4839 3.16861C38.3264 3.30258 39.0666 3.61291 39.7043 4.09889C40.3418 4.58535 40.6607 5.30462 40.6607 6.25719C40.6607 7.27929 40.1826 7.9741 39.2261 8.34112C40.3008 8.71832 40.8702 9.48241 40.934 10.6334V10.663C40.9248 12.0424 40.3509 13.0497 39.2124 13.6847Z" fill="white"/>
<path d="M54.7612 14.3098H51.8508L50.7988 12.1963H44.7457L43.6935 14.3098H40.7832L46.276 3.29541H49.2821L54.7612 14.3098ZM47.779 6.10854L45.8661 9.93384H49.6782L47.779 6.10854Z" fill="white"/>
<path d="M64.5033 3.29541V5.60246H58.0676V14.3098H55.2393V3.29541H64.5033Z" fill="white"/>
<path d="M74.383 3.80862C75.3575 4.30986 76.1228 4.99958 76.6785 5.87753C77.2339 6.75573 77.5118 7.74561 77.5118 8.84717C77.5118 9.9388 77.2339 10.9212 76.6785 11.7943C76.1228 12.6676 75.3575 13.3547 74.383 13.8557C73.408 14.3567 72.3105 14.6074 71.09 14.6074C69.9149 14.6074 68.833 14.3567 67.8449 13.8557C66.8563 13.3547 66.0706 12.665 65.4877 11.7868C64.9046 10.9086 64.6133 9.92886 64.6133 8.84716C64.6133 7.75554 64.9024 6.76832 65.4808 5.88504C66.0593 5.002 66.845 4.30986 67.838 3.80862C68.8307 3.30763 69.9149 3.05713 71.09 3.05713C72.3105 3.05713 73.408 3.30763 74.383 3.80862ZM72.7707 11.7868C73.2988 11.5239 73.7269 11.1419 74.055 10.6406C74.383 10.1396 74.5469 9.54173 74.5469 8.84716C74.5469 8.16253 74.383 7.56464 74.055 7.05346C73.7269 6.54254 73.2988 6.15298 72.7707 5.88504C72.2422 5.6171 71.682 5.48313 71.09 5.48313C70.4796 5.48313 69.908 5.61492 69.3752 5.87753C68.8423 6.14063 68.4162 6.52509 68.0975 7.03118C67.7786 7.53726 67.6194 8.13274 67.6194 8.81737C67.6194 9.51193 67.781 10.1149 68.1044 10.6258C68.4275 11.137 68.8559 11.5239 69.3887 11.7868C69.9216 12.0499 70.4887 12.1812 71.09 12.1812C71.682 12.1812 72.2422 12.0499 72.7707 11.7868Z" fill="white"/>
<path d="M88.1486 3.75667C88.7998 4.06435 89.3053 4.49363 89.6653 5.04429C90.025 5.59495 90.2051 6.23258 90.2051 6.95694V7.01654C90.2051 8.21718 89.8519 9.13753 89.1461 9.77759C88.44 10.4176 87.4403 10.7377 86.1469 10.7377H81.351V14.3098H78.5088V3.29541H85.9009C86.748 3.29541 87.4972 3.44925 88.1486 3.75667ZM86.6183 8.39331C86.8868 8.34873 87.1147 8.22469 87.3015 8.02119C87.4881 7.81794 87.5815 7.48798 87.5815 7.03132C87.5815 6.56496 87.4881 6.22531 87.3015 6.01164C87.1147 5.79845 86.8823 5.66714 86.6046 5.61724C86.3266 5.56782 85.9465 5.54286 85.4637 5.54286H84.9582C84.7485 5.54286 84.3864 5.54553 83.8718 5.55038C83.3572 5.55546 82.5123 5.55789 81.3372 5.55789V8.46017H85.4637C85.9645 8.46017 86.3495 8.43788 86.6183 8.39331Z" fill="white"/>
<path d="M100.686 3.80862C101.66 4.30986 102.426 4.99958 102.981 5.87753C103.537 6.75573 103.815 7.74561 103.815 8.84717C103.815 9.9388 103.537 10.9212 102.981 11.7943C102.426 12.6676 101.66 13.3547 100.686 13.8557C99.7108 14.3567 98.6132 14.6074 97.3928 14.6074C96.2176 14.6074 95.1357 14.3567 94.1476 13.8557C93.1591 13.3547 92.3733 12.665 91.7905 11.7868C91.2073 10.9086 90.916 9.92886 90.916 8.84716C90.916 7.75554 91.2051 6.76832 91.7836 5.88504C92.362 5.002 93.1477 4.30986 94.1407 3.80862C95.1335 3.30763 96.2176 3.05713 97.3928 3.05713C98.6132 3.05713 99.7108 3.30763 100.686 3.80862ZM99.0734 11.7868C99.6016 11.5239 100.03 11.1419 100.358 10.6406C100.686 10.1396 100.85 9.54173 100.85 8.84716C100.85 8.16253 100.686 7.56464 100.358 7.05346C100.03 6.54254 99.6016 6.15298 99.0734 5.88504C98.545 5.6171 97.9848 5.48313 97.3928 5.48313C96.7823 5.48313 96.2107 5.61492 95.6779 5.87753C95.145 6.14063 94.7189 6.52509 94.4002 7.03118C94.0813 7.53726 93.9221 8.13274 93.9221 8.81737C93.9221 9.51193 94.0838 10.1149 94.4071 10.6258C94.7303 11.137 95.1586 11.5239 95.6915 11.7868C96.2243 12.0499 96.7914 12.1812 97.3928 12.1812C97.9848 12.1812 98.545 12.0499 99.0734 11.7868Z" fill="white"/>
<path d="M115.647 11.9284H117V15.7387H114.322V14.3248L106.438 14.3098V15.7387H103.76V11.9284H104.675C105.44 10.4101 106.001 8.99872 106.356 7.69366C106.711 6.38908 106.889 4.92292 106.889 3.29541H115.634L115.647 11.9284ZM109.403 5.60246C109.266 6.71395 109.036 7.7707 108.713 8.77293C108.39 9.77516 107.968 10.8268 107.449 11.9284H112.983V5.61724L109.403 5.60246Z" fill="white"/>
<path d="M11.7839 3.81445L22.8295 7.23643L23.2338 5.68763L11.7839 2.14038L0.333984 5.68763L0.738303 7.23643L11.7839 3.81445Z" fill="#CAFF00"/>
<path d="M11.7834 4.38721L0 17.8906L1.07136 19L11.7834 6.72433L22.4955 19L23.5669 17.8906L11.7834 4.38721Z" fill="#CAFF00"/>
<path d="M23.0317 0H0.536133V1.6102H23.0317V0Z" fill="#CAFF00"/>
</g>
<defs>
<clipPath id="clip0_234_1169">
<rect width="120" height="19" fill="white"/>
</clipPath>
</defs>
</svg>
