<svg width="14" height="14" viewBox="0 0 14 14" fill="none" xmlns="http://www.w3.org/2000/svg">
<g clip-path="url(#clip0_86_1071)">
<path d="M8.67533 8.33407L12.4798 12.1374C12.3273 12.3398 12.1326 12.5066 11.9092 12.6263C11.6858 12.746 11.439 12.8156 11.186 12.8304L11.0833 12.8333H2.91666C2.64598 12.8336 2.37893 12.771 2.13658 12.6504C1.89423 12.5299 1.68321 12.3546 1.52016 12.1386L5.32408 8.33407L6.67625 9.23532L6.74391 9.27382C6.82366 9.31278 6.91124 9.33304 7 9.33304C7.08875 9.33304 7.17634 9.31278 7.25608 9.27382L7.32375 9.23532L8.67533 8.33407ZM1.16666 5.56207L4.33358 7.67374L1.16666 10.8412V5.56207ZM12.8333 5.56207V10.8412L9.66583 7.67374L12.8333 5.56207ZM7.25666 1.22616L7.32375 1.26466L12.2494 4.54824L7 8.04824L1.75 4.54824L6.67625 1.26407C6.76115 1.20763 6.85937 1.17443 6.96111 1.16778C7.06284 1.16113 7.16513 1.18125 7.25666 1.22616Z" fill="white"/>
</g>
<defs>
<clipPath id="clip0_86_1071">
<rect width="14" height="14" fill="white"/>
</clipPath>
</defs>
</svg>
